<svg viewBox="0 0 512 512" xmlns="http://www.w3.org/2000/svg">
  <rect width="512" height="512" fill="#151515" rx="32"/>

  <g fill="#FFFFFF" transform="translate(256 256)">
    <path d="M0 -176 C22 -176,44 -152,44 -128 C44 -104,20 -92,0 -92 C-20 -92,-44 -104,-44 -128 C-44 -152,-22 -176,0 -176 Z"/>
    <g transform="rotate(45)"><path d="M0 -176 C22 -176,44 -152,44 -128 C44 -104,20 -92,0 -92 C-20 -92,-44 -104,-44 -128 C-44 -152,-22 -176,0 -176 Z"/></g>
    <g transform="rotate(90)"><path d="M0 -176 C22 -176,44 -152,44 -128 C44 -104,20 -92,0 -92 C-20 -92,-44 -104,-44 -128 C-44 -152,-22 -176,0 -176 Z"/></g>
    <g transform="rotate(135)"><path d="M0 -176 C22 -176,44 -152,44 -128 C44 -104,20 -92,0 -92 C-20 -92,-44 -104,-44 -128 C-44 -152,-22 -176,0 -176 Z"/></g>
    <g transform="rotate(180)"><path d="M0 -176 C22 -176,44 -152,44 -128 C44 -104,20 -92,0 -92 C-20 -92,-44 -104,-44 -128 C-44 -152,-22 -176,0 -176 Z"/></g>
    <g transform="rotate(225)"><path d="M0 -176 C22 -176,44 -152,44 -128 C44 -104,20 -92,0 -92 C-20 -92,-44 -104,-44 -128 C-44 -152,-22 -176,0 -176 Z"/></g>
    <g transform="rotate(270)"><path d="M0 -176 C22 -176,44 -152,44 -128 C44 -104,20 -92,0 -92 C-20 -92,-44 -104,-44 -128 C-44 -152,-22 -176,0 -176 Z"/></g>
    <g transform="rotate(315)"><path d="M0 -176 C22 -176,44 -152,44 -128 C44 -104,20 -92,0 -92 C-20 -92,-44 -104,-44 -128 C-44 -152,-22 -176,0 -176 Z"/></g>
  </g>

  <g fill="none" stroke="#FFFFFF" stroke-width="28" stroke-linecap="round" stroke-linejoin="round"
     transform="translate(256 256)">
    <path d="M-24 50 V-50 H24 M-24 0 H8"/>
  </g>
</svg>
